# xmcd
#
# Track frame offsets:
#	150
#	11032
#	27011
#	38985
#	51670
#	60197
#	71453
#	83840
#	95426
#	107593
#	121367
#	134088
#
# Disc length: 1970 seconds
#
# Revision: 0
# Processed by: cddbd v1.5.1PL0 Copyright (c) Steve Scherf et al.
# Submitted via: EasyCDDAExtractor 8.2.1.1
#
DISCID=9f07b00c
DTITLE=Various Artist - The Roots Of Bluegrass
DYEAR=1946
DGENRE=Bluegrass
TTITLE0=Ralph Stanley and The Clinch Mountain Boys - In Heaven We'll Never Grow 
TTITLE0=Old
TTITLE1=The Monroe Brothers - On The Banks Of The Ohio
TTITLE2=Lester Flatt and Earl Scruggs - Foggy Mountain Breakdown
TTITLE3=Uncle Dave Macon - Cumberland Mountain Deer Race
TTITLE4=Ralph Stanley and The Clinch Mountain Boys - Ain't It Hard
TTITLE5=Jim Eanes - Don't Let Your Sweet Love Die
TTITLE6=The Blue Sky Boys - Are You From Dixie?
TTITLE7=Bill Monroe and His Blue Grass Boys - Orange Blossom Special
TTITLE8=The Delmore Brothers - Going Back To The Blue Ridge Mountain
TTITLE9=Bill Monroe and His Blue Grass Boys - Blue Moon Of Kentucky
TTITLE10=Bill Monroe and His Blue Grass Boys - Kentucky Waltz
TTITLE11=Brownsferry Four - Will The Circle Be Unbroken
EXTD=
EXTT0=
EXTT1=
EXTT2=
EXTT3=
EXTT4=
EXTT5=
EXTT6=
EXTT7=
EXTT8=
EXTT9=
EXTT10=
EXTT11=
PLAYORDER=
